<?xml version="1.0" encoding="UTF-8" standalone="no"?><!DOCTYPE svg PUBLIC "-//W3C//DTD SVG 1.1//EN" "http://www.w3.org/Graphics/SVG/1.1/DTD/svg11.dtd"><svg width="100%" height="100%" viewBox="0 0 1125 1125" version="1.1" xmlns="http://www.w3.org/2000/svg" xmlns:xlink="http://www.w3.org/1999/xlink" xml:space="preserve" xmlns:serif="http://www.serif.com/" style="fill-rule:evenodd;clip-rule:evenodd;stroke-linejoin:round;stroke-miterlimit:2;"><path d="M900.21,510.424c-8.279,-62.587 -31.802,-122.185 -68.497,-173.56c-36.687,-51.373 -85.43,-92.954 -141.951,-121.088c-56.516,-28.134 -119.076,-41.961 -182.186,-40.268c-63.11,1.692 -124.838,18.855 -179.766,49.978c-54.927,31.123 -101.373,75.257 -135.258,128.525c-33.886,53.267 -54.175,114.04 -59.086,176.981c-4.911,62.941 5.707,126.125 30.92,184.004c25.215,57.879 64.252,108.682 113.688,147.948c37.848,-16.853 79.231,-36.527 123.184,-58.593c-44.456,-21.299 -82.23,-54.367 -109.222,-95.615c-26.992,-41.248 -42.172,-89.102 -43.893,-138.367c-1.721,-49.264 10.083,-98.06 34.132,-141.091c24.048,-43.03 59.423,-78.653 102.285,-103.003c42.86,-24.349 91.572,-36.494 140.848,-35.119c49.276,1.375 97.234,16.221 138.67,42.923c41.436,26.703 74.766,64.245 96.379,108.55c21.612,44.306 30.67,93.684 26.206,142.777c40.705,-25.815 78.763,-50.953 113.547,-74.982Zm3.247,43.703c-38.957,28.815 -82.122,58.664 -128.543,88.764c-20.73,65.028 -65.331,119.786 -124.816,153.248c-59.487,33.464 -129.442,43.147 -195.782,27.1c-50.88,24.459 -99.154,45.631 -143.357,63.163c58.793,37.391 126.619,58.154 196.268,60.082c69.649,1.93 138.52,-15.05 199.291,-49.132c60.769,-34.081 111.175,-83.991 145.848,-144.426c34.681,-60.433 52.334,-129.134 51.091,-198.799Z" style="fill:#6c4dff;"/><path d="M923.022,240.491c5.219,-0 10.318,-1.548 14.662,-4.447c4.337,-2.899 7.722,-7.02 9.718,-11.842c1.997,-4.821 2.52,-10.127 1.5,-15.245c-1.02,-5.118 -3.531,-9.82 -7.224,-13.51c-3.685,-3.69 -8.39,-6.204 -13.506,-7.222c-5.124,-1.018 -10.429,-0.495 -15.245,1.502c-4.825,1.997 -8.947,5.379 -11.843,9.718c-2.905,4.339 -4.448,9.441 -4.448,14.659c-0.009,3.467 0.677,6.901 1.997,10.104c1.328,3.203 3.265,6.114 5.724,8.565c2.451,2.451 5.356,4.395 8.561,5.719c3.205,1.324 6.633,2.004 10.104,1.999Z" style="fill:#6c4dff;"/><path d="M35.171,688.809c6.96,-0 13.763,-2.066 19.549,-5.935c5.787,-3.87 10.294,-9.369 12.953,-15.801c2.659,-6.433 3.349,-13.51 1.983,-20.335c-1.366,-6.826 -4.726,-13.092 -9.655,-18.006c-4.929,-4.914 -11.206,-8.255 -18.036,-9.601c-6.829,-1.344 -13.904,-0.633 -20.328,2.046c-6.425,2.678 -11.91,7.203 -15.762,13c-3.852,5.798 -5.896,12.608 -5.875,19.569c0.028,9.309 3.747,18.227 10.339,24.799c6.593,6.573 15.522,10.264 24.832,10.264Z" style="fill:#6c4dff;"/><path d="M629.13,481.645c37.991,-20.995 74.982,-40.918 110.683,-59.307c1.328,2.143 2.75,4.679 4.25,7.535c-35.381,18.495 -72.372,38.49 -110.362,59.521l-4.571,-7.749Zm493.452,-187.346c-16.959,-29.386 -119.794,1.821 -265.332,69.84c1.363,2.249 2.717,4.57 4.002,6.927c139.427,-66.377 236.727,-98.333 249.084,-72.625c19.419,33.635 -203.528,198.665 -497.737,368.587c-294.213,169.922 -548.65,280.392 -568.074,246.76c-11.068,-19.995 43.667,-74.481 92.835,-117.828c-70.805,57.129 -107.939,101.154 -95.727,122.292c27.707,48.021 295.891,-46.417 594.424,-218.661c298.534,-172.243 514.376,-357.269 486.525,-405.292Z" style="fill:#6c4dff;"/><path d="M594.175,509.567c-6.291,-10.796 -8.643,-23.439 -6.654,-35.774c1.989,-12.335 8.195,-23.599 17.56,-31.871c9.365,-8.271 21.308,-13.038 33.795,-13.488c12.486,-0.45 24.743,3.446 34.678,11.022c9.936,7.576 16.936,18.364 19.807,30.524c2.871,12.161 1.436,24.941 -4.063,36.16c-5.497,11.221 -14.717,20.187 -26.086,25.369c-11.37,5.183 -24.185,6.261 -36.26,3.052c-6.876,-1.717 -13.33,-4.82 -18.965,-9.118c-5.637,-4.296 -10.336,-9.7 -13.812,-15.876Z" style="fill:#6c4dff;fill-rule:nonzero;"/></svg>